<svg width="100" height="100" viewBox="0 0 100 100" fill="none" xmlns="http://www.w3.org/2000/svg">
<g clip-path="url(#clip0_5_10)">
<path d="M64.1422 0.832685C59.4811 4.02898 54.9873 5.51784 50.0009 5.51784C45.0139 5.51784 40.5201 4.02898 35.8587 0.832685L34.6444 0L33.412 0.806184C28.1435 4.25212 23.8629 4.88251 17.3312 4.88251C15.0793 4.88251 12.658 4.46272 10.3295 3.66837L8.77838 3.1394L7.83468 4.46519C7.33279 5.17032 6.95985 5.6182 6.59944 6.05124C6.15531 6.58463 5.73569 7.08869 5.24292 7.87102L4.45376 9.12403L5.35203 10.3032C9.34378 15.5431 10.8502 20.9339 10.8502 26.0085C10.8502 35.4714 5.6121 43.8334 1.48655 48.0618L0 49.5855L1.51625 51.0802C2.32955 51.882 3.77818 53.3666 4.97623 54.6104L4.92811 55.2625L4.91756 55.3813C4.86839 56.2856 4.84358 57.191 4.84315 58.0966C4.84315 67.7067 7.71878 75.6966 13.4098 81.8763C19.9985 89.0315 30.3008 93.303 42.4767 93.9678C45.5003 96.6878 48.573 98.9454 48.7106 99.0463L50.0122 99.9998L51.3122 99.0429C51.4486 98.9422 54.5047 96.686 57.5247 93.9673C69.7003 93.3027 80.0023 89.0313 86.5911 81.876C92.2818 75.6963 95.1577 67.7064 95.1577 58.097C95.1577 57.2057 95.1327 56.3004 95.0833 55.3809L95.0819 55.3595L95.071 55.2417C95.071 55.2417 95.0281 54.6581 95.0248 54.6102C96.1338 53.4587 97.6295 51.9228 98.4845 51.0797L100 49.585L98.5142 48.0615C94.3892 43.8327 89.1509 35.47 89.1509 26.0071C89.1509 20.9329 90.6569 15.5422 94.6481 10.3028L95.5462 9.12421L94.758 7.87138C94.265 7.08834 93.8454 6.58428 93.4013 6.05053C93.041 5.61767 92.6681 5.16996 92.1667 4.46502L91.2232 3.13869L89.6721 3.66784C87.3431 4.46219 84.922 4.88198 82.6702 4.88198C76.138 4.88198 71.8572 4.25159 66.5893 0.805654L65.3565 0L64.1422 0.832685Z" fill="black"/>
<path d="M50.0091 97.3168C50.0091 97.3168 46.5288 94.7666 43.3845 91.8655C22.8149 91.0231 5.794 79.629 7.09454 55.4956C7.17145 54.8588 7.10616 54.9018 7.21778 53.8154C6.03833 52.5827 4.08673 50.5716 3.0561 49.5557C10.4343 41.9929 19.0439 24.6942 7.09364 9.00795C7.8794 7.76007 8.44819 7.34629 9.61762 5.70318C12.0062 6.51784 14.6622 7.03534 17.3309 7.03534C24.1837 7.03534 28.8627 6.3636 34.6152 2.60088C39.1631 5.71926 44.0949 7.6705 50.0009 7.6705C55.9065 7.6705 60.838 5.71926 65.3855 2.60088C71.1378 6.36343 75.8168 7.03534 82.6702 7.03534C85.3382 7.03534 87.9949 6.51802 90.3835 5.70318C91.5527 7.34611 92.1215 7.76007 92.9067 9.00795C80.957 24.6942 89.5671 41.9929 96.9446 49.5557C95.9142 50.5716 93.9622 52.5827 92.7829 53.8154C92.894 54.9016 92.8294 54.8588 92.9062 55.4956C94.2067 79.629 77.1851 91.0228 56.6168 91.8655C53.4723 94.7668 50.0091 97.3168 50.0091 97.3168Z" fill="#E2B900"/>
<path d="M10.9963 54.0562H10.706L10.5822 55.0945L10.493 55.7629C10.0129 65.0594 12.3595 72.5696 17.4659 78.1019C23.323 84.4482 32.8122 88.064 44.9077 88.559C44.9195 88.5594 45.1109 88.5604 45.1109 88.5604C48.7401 88.5799 52.1677 88.5982 55.0839 88.5594C67.1885 88.0641 76.6777 84.4482 82.5346 78.1021C87.6413 72.57 89.9876 65.0599 89.509 55.78C89.5077 55.7633 89.4179 55.0917 89.4179 55.0917L89.2952 54.0686L89.0037 54.0564H10.9963V54.0562Z" fill="black"/>
<path d="M11.2864 54.7014L11.2276 55.1942C11.2276 55.1942 11.145 55.8134 11.1441 55.8134C11.1043 56.5748 11.0843 57.3371 11.084 58.0995C11.084 66.1518 13.3886 72.7263 17.9488 77.6671C19.0387 78.8482 20.2591 79.932 21.6015 80.9171V54.7014H11.2864ZM88.8574 55.8299L88.7724 55.191L88.7137 54.7014H78.3989V80.9173C79.7417 79.9323 80.9621 78.8484 82.0517 77.6673C86.6128 72.7256 88.9173 66.1496 88.9173 58.1078C88.9171 57.3615 88.8976 56.6019 88.8574 55.8299Z" fill="#004B95"/>
<path d="M32.9611 54.7014H21.6016V80.9173C24.7448 83.2247 28.562 84.9871 32.9611 86.174V54.7014ZM67.0397 54.7014V86.1735C71.4398 84.9862 75.2564 83.224 78.3989 80.9173V54.7014H67.0397Z" fill="#A4234B"/>
<path d="M39.1117 70.8488C39.1117 66.9648 41.1964 63.5622 44.3206 61.6717V54.7014H32.9609V86.174C36.4046 87.1034 40.2053 87.6786 44.3206 87.8845V80.0261C41.1966 78.1357 39.1117 74.7329 39.1117 70.8488ZM55.6801 54.7014V61.6716C58.8041 63.562 60.889 66.9647 60.889 70.8486C60.889 74.7325 58.8041 78.1355 55.6801 80.026V87.8839C59.7959 87.6776 63.5965 87.1021 67.0397 86.1733V54.7014H55.6801Z" fill="#004B95"/>
<path d="M55.6801 61.6717V54.7014H44.3206V61.6716C45.9741 60.6705 47.9185 60.0931 50 60.0931C52.0816 60.0933 54.0265 60.6709 55.6801 61.6717ZM44.3206 80.0261V87.8844C44.5212 87.8947 44.7208 87.9058 44.9229 87.914L45.1143 87.915C48.7402 87.9343 52.165 87.9526 55.0658 87.9143C55.2717 87.9058 55.4753 87.8943 55.6801 87.8841V80.0261C54.0263 81.0267 52.0815 81.6044 50 81.6044C47.9187 81.6046 45.9741 81.0269 44.3206 80.0261Z" fill="#A4234B"/>
<path d="M44.4435 72.8005C42.4733 71.0281 42.4672 67.4263 42.9965 65.0339C43.1435 64.3677 43.3287 63.7155 43.5197 62.9701C41.2034 64.8311 39.7236 67.6694 39.7236 70.8488C39.7218 72.153 39.9753 73.4453 40.47 74.6546C40.6451 74.6772 40.8231 74.6894 41.0038 74.6894C42.5255 74.6894 43.7681 73.995 44.4435 72.8005ZM55.0234 73.5774C54.6863 75.2786 52.8443 76.5534 51.1086 77.5758C49.3201 78.6297 46.4356 79.1742 44.265 79.2735C45.9031 80.3634 47.8765 81 50 81C53.8758 81 57.2505 78.8804 59.0002 75.7516C58.6938 73.2473 56.2836 72.9532 55.0234 73.5774Z" fill="#E2B900"/>
<path d="M43.4682 78.6855C45.6121 78.7019 48.9069 78.1693 50.7956 77.0567C53.2368 75.6178 55.1333 74.0827 54.2321 71.9544C53.7768 70.879 52.2628 69.6343 50.3001 71.0072C50.1747 72.5959 48.1893 73.9972 46.7638 73.8166C46.0415 73.7251 45.4362 73.5 44.932 73.174C44.1309 74.5262 42.6965 75.2936 41.0043 75.2936C40.9209 75.2936 40.8378 75.2913 40.7557 75.2867C41.4026 76.5987 42.3277 77.7579 43.4682 78.6855ZM49.9737 64.5228C51.6735 63.8267 54.0295 64.7315 55.8246 65.7214C57.5193 66.6567 59.2889 68.4021 60.2587 70.2352C59.9392 64.9424 55.5157 60.7431 50.0889 60.6979C48.4673 61.7498 48.6887 63.7329 49.9737 64.5228Z" fill="#E2B900"/>
<path d="M49.6863 70.9996C47.5819 69.4836 47.7112 67.0981 48.6166 65.6809C48.8388 65.3332 49.0974 65.0599 49.3847 64.8507C48.1613 63.886 47.9164 62.0143 49.1016 60.7355C47.3793 60.8823 45.7229 61.4583 44.2874 62.4095C43.8386 64.3159 43.2673 66.0569 43.2959 68.0481C43.3344 70.7315 44.4589 72.9159 46.8414 73.2177C47.9532 73.3583 49.5575 72.1898 49.6863 70.9996Z" fill="#E2B900"/>
<path d="M60.2343 71.7823C59.6478 69.6821 57.5397 67.3604 55.5262 66.2495C53.0438 64.8795 50.328 64.1346 49.1339 66.0041C48.3675 67.2037 48.2609 69.1853 49.9996 70.4768C52.3632 68.8643 54.2511 70.4323 54.7963 71.7217C54.9714 72.1346 55.0601 72.5274 55.0757 72.9011C56.4706 72.4162 58.738 72.7284 59.4361 74.879C59.8669 73.8952 60.1364 72.8499 60.2343 71.7823Z" fill="#E2B900"/>
<path d="M40.6321 42.3534H33.4485V52.3304H35.6372V48.2141H38.6179V46.1076H35.6372V44.4738H40.7374V42.3537L40.6321 42.3534ZM44.8097 47.3417C44.8097 50.4655 46.5479 52.4837 49.238 52.4837C50.9918 52.4837 52.255 51.7219 52.9921 50.2201L53.0343 50.1339L51.1934 49.0555L51.1395 49.1445C50.6144 50.0129 50.1147 50.3357 49.2947 50.3357C47.9552 50.3357 47.055 49.1323 47.055 47.3417C47.055 45.4951 47.908 44.3479 49.2808 44.3479C50.0782 44.3479 50.6387 44.6765 50.995 45.3528L51.0415 45.441L53.0677 44.5175L53.0209 44.4221C52.3092 42.9684 51.0256 42.2 49.3087 42.2C46.6597 42.1998 44.8097 44.3143 44.8097 47.3417ZM65.243 46.9269C65.8547 46.4984 66.2137 45.826 66.2137 45.039C66.2137 43.3574 65.0015 42.3534 62.9715 42.3534H58.331V52.3304H62.9288C65.1979 52.3304 66.5521 51.1124 66.5521 49.0724C66.5521 48.117 66.069 47.3516 65.243 46.9269ZM60.4772 44.3622H62.8867C63.8698 44.3622 63.9957 44.806 63.9957 45.1928C63.9957 45.7426 63.6654 46.0099 62.9857 46.0099H60.4774L60.4772 44.3622ZM62.9994 50.2661H60.4772V47.9486H62.9994C63.8916 47.9486 64.3071 48.3147 64.3071 49.1003C64.3071 49.8629 63.8551 50.2661 62.9994 50.2661ZM65.2726 6.68587C60.379 9.60989 55.3831 11.0332 49.9996 11.0371C44.6167 11.0334 39.6213 9.60989 34.7275 6.68587L34.564 6.58816L34.3979 6.6811C28.8232 9.79293 23.9183 10.4016 17.33 10.4016C15.7466 10.4016 14.1132 10.2445 12.4745 9.93463L11.7683 9.80106L12.131 10.4143C18.8997 21.8557 16.4968 32.9171 13.2894 40.1822L13.0899 40.6339H86.9106L86.7108 40.1822C83.5035 32.9171 81.1007 21.8557 87.8689 10.4143L88.2317 9.80106L87.5259 9.93463C85.8873 10.2445 84.2535 10.4016 82.6704 10.4016C76.082 10.4016 71.177 9.79293 65.6025 6.6811L65.4361 6.58816L65.2726 6.68587Z" fill="black"/>
<path d="M27.3588 10.1263C24.2669 10.8509 21.0631 11.047 17.3301 11.047C15.9184 11.047 14.4665 10.9026 13.0089 10.6622C14.7384 13.7168 15.8388 16.7394 16.463 19.6691H27.359L27.3588 10.1263ZM49.6737 19.6691V11.6769C45.7646 11.6329 42.055 10.8491 38.4394 9.30265V19.6691H49.6737ZM16.7721 30.6143C16.2575 34.1177 15.2306 37.2933 14.0773 39.9883H27.359V30.6143H16.7721ZM38.4394 39.9883H49.6737V30.6143H38.4394V39.9883Z" fill="white"/>
<path d="M38.4394 19.6691V9.30265C37.1329 8.74399 35.8383 8.08834 34.5519 7.32827C32.0918 8.68304 29.7592 9.56378 27.359 10.1261V19.6689H16.463C16.9012 21.7256 17.122 23.8216 17.1218 25.9233C17.1218 27.5401 16.9937 29.1071 16.7723 30.6141H27.359V39.9882H38.4395V30.6141H49.6739V19.6689L38.4394 19.6691Z" fill="#DB2F36"/>
<path d="M65.4481 7.32827L65.4324 7.33728V39.9882H69.3275V9.11908C68.0515 8.64117 66.7683 8.05512 65.4481 7.32827ZM57.6419 10.6678V39.9883H61.537V9.31254C60.2723 9.85364 58.9707 10.3065 57.6419 10.6678ZM50.3266 11.6769V39.9883H53.7465V11.4394C52.6122 11.5841 51.4703 11.6634 50.3266 11.6769ZM73.2234 10.2514V39.9883H77.1184V10.8297C75.7787 10.7069 74.4892 10.5201 73.2234 10.2514ZM82.8788 25.9235C82.8788 21.1468 83.9969 15.9511 86.9916 10.6622C85.534 10.9025 84.0818 11.047 82.6704 11.047C82.1052 11.047 81.5562 11.0405 81.0139 11.0302V39.9883H85.9232C84.2736 36.1336 82.8788 31.2986 82.8788 25.9235Z" fill="#FFDF00"/>
<path d="M77.1186 10.8297V39.9883H81.0137V11.0302C79.6567 11.0048 78.3646 10.9438 77.1186 10.8297ZM53.7467 11.4394V39.9883H57.6419V10.6678C56.3633 11.0147 55.0618 11.2725 53.7467 11.4394ZM61.5372 9.31254V39.9883H65.4324V7.33728C64.1435 8.09806 62.8461 8.75406 61.5372 9.31254ZM69.3277 9.11908V39.9883H73.2232V10.2514C71.8976 9.9717 70.5954 9.59318 69.3277 9.11908Z" fill="#DB2F36"/>
</g>
<defs>
<clipPath id="clip0_5_10">
<rect width="100" height="100" fill="white"/>
</clipPath>
</defs>
</svg>
