<svg width="50" height="30" viewBox="0 0 50 30" fill="none" xmlns="http://www.w3.org/2000/svg">
<path d="M49.3211 9.01909C49.5399 8.83331 49.7149 8.59813 49.8325 8.33153C49.9502 8.06493 50.0075 7.77398 50 7.48091V3.75C50.0036 2.76281 49.63 1.81429 48.9608 1.11165C48.2917 0.409013 47.3815 0.00936084 46.429 0L16.0711 0V4.68818C16.0711 5.72455 15.2737 6.56182 14.2869 6.56182C14.0508 6.56039 13.8174 6.51079 13.5999 6.41586C13.3823 6.32093 13.1849 6.18252 13.019 6.00853C12.8531 5.83455 12.7219 5.6284 12.6328 5.40185C12.5438 5.17531 12.4987 4.9328 12.5 4.68818V0H3.57109C2.61857 0.00936084 1.70834 0.409013 1.03923 1.11165C0.370119 1.81429 -0.00348219 2.76281 3.71354e-05 3.75V7.48091C-0.00743544 7.77398 0.0498566 8.06493 0.167532 8.33153C0.285208 8.59813 0.460151 8.83331 0.678984 9.01909C2.49477 10.4127 3.57372 12.6355 3.57372 15C3.57372 17.3645 2.49477 19.5873 0.678984 20.9809C0.460151 21.1667 0.285208 21.4019 0.167532 21.6685C0.0498566 21.9351 -0.00743544 22.226 3.71354e-05 22.5191V26.25C-0.00348219 27.2372 0.370119 28.1857 1.03923 28.8883C1.70834 29.591 2.61857 29.9906 3.57109 30H12.5V25.3118C12.5 24.2755 13.3 23.4382 14.2869 23.4382C15.2737 23.4382 16.0711 24.2755 16.0711 25.3118V30H46.429C47.3815 29.9906 48.2917 29.591 48.9608 28.8883C49.63 28.1857 50.0036 27.2372 50 26.25V22.5191C50.0075 22.226 49.9502 21.9351 49.8325 21.6685C49.7149 21.4019 49.5399 21.1667 49.3211 20.9809C48.4216 20.2873 47.6913 19.3852 47.1886 18.3466C46.686 17.308 46.4249 16.1619 46.4264 15C46.4264 12.6355 47.5053 10.4127 49.3211 9.01909ZM16.0711 18.4309C16.0711 19.4673 15.2711 20.3073 14.2869 20.3073C14.0506 20.3058 13.817 20.2562 13.5992 20.1611C13.3815 20.066 13.184 19.9273 13.0181 19.753C12.8521 19.5788 12.721 19.3723 12.6321 19.1454C12.5432 18.9186 12.4983 18.6758 12.5 18.4309V11.5691C12.5 10.5327 13.3 9.69273 14.2869 9.69273C15.2711 9.69273 16.0711 10.5327 16.0711 11.5691V18.4309Z" fill="#FDC52C"/>
</svg>
